<svg width="179" height="82" viewBox="0 0 179 82" fill="none" xmlns="http://www.w3.org/2000/svg">
<path d="M20.9557 41.7907C22.5492 41.7907 23.4742 43.5938 22.5447 44.8881L20.4288 47.8344C20.0613 48.3462 19.4699 48.6496 18.8398 48.6496H1.95966C0.381484 48.6496 -0.547116 46.877 0.351369 45.5796L31.3294 0.846207C32.4212 -0.730403 34.894 0.0422063 34.894 1.95995V29.0159C34.894 29.4704 34.7357 29.9107 34.4464 30.2612L31.7914 33.4776C30.6238 34.8922 28.3264 34.0665 28.3264 32.2323V22.8826C28.3264 20.9584 25.84 20.1903 24.7547 21.7793L13.1765 38.731C12.2896 40.0295 13.2195 41.7907 14.7919 41.7907H20.9557Z" fill="white"/>
<path d="M25.6568 48.1237C26.8074 46.6692 29.1474 47.4828 29.1474 49.3374V58.5296C29.1474 60.4515 31.6289 61.2213 32.7166 59.6367L44.5581 42.3848C45.4491 41.0867 44.5197 39.3215 42.9452 39.3215H36.4685C34.8339 39.3215 33.9202 37.4357 34.9331 36.1529L37.043 33.4809C37.414 33.011 37.9797 32.7369 38.5783 32.7369H55.7878C57.366 32.7369 58.2946 34.5095 57.3961 35.807L26.4181 80.5403C25.3263 82.1169 22.8535 81.3443 22.8535 79.4266V52.3477C22.8535 51.9072 23.0022 51.4795 23.2755 51.134L25.6568 48.1237Z" fill="white"/>
<path d="M42.0495 27.2498C40.9691 27.2498 40.0932 26.374 40.0932 25.2935V21.1017C40.0932 20.482 40.3869 19.8989 40.8848 19.53L52.0252 11.2744C53.6998 10.0334 55.8953 11.9229 54.9176 13.7638L48.307 26.2111C47.9675 26.8503 47.3029 27.2498 46.5792 27.2498H42.0495Z" fill="white"/>
<path d="M79.2295 29.2747C75.8693 29.1646 74.2718 40.457 73.721 44.5884C73.1701 49.1054 72.8947 53.7876 71.7379 58.1393C71.6828 58.3596 71.5727 58.4698 71.4074 58.58C70.8015 61.5546 64.5769 61.3893 64.5769 58.1393C64.5218 48.5545 64.5769 38.9697 64.4116 29.3849C64.3015 25.9696 71.1871 25.9696 71.2422 29.3849C71.3523 33.2409 71.3523 37.0968 71.4074 40.9528C72.0134 37.0417 72.6193 32.2493 75.2634 29.0544C76.31 27.7875 77.5219 26.7959 79.1744 26.5756C81.1575 26.3552 83.1956 27.0163 84.5727 28.3934C88.0431 31.9188 88.4287 36.8214 88.8143 41.5036C89.1999 47.0672 89.1448 52.6308 89.0346 58.1944C88.9796 61.6097 82.0388 61.6097 82.149 58.1944C82.2041 52.4105 82.3143 46.6265 81.8736 40.8977C81.7634 39.6307 81.2676 29.2747 79.2295 29.2747Z" fill="white"/>
<path d="M111.361 47.7833C111.361 51.3088 111.471 54.7791 111.251 58.3046C111.085 61.6648 104.751 61.6097 104.53 58.3046C104.53 57.6986 104.475 57.0927 104.475 56.4868C103.539 58.4698 101.831 60.508 98.5811 60.6732C95.4964 60.7834 93.6786 59.5164 92.6319 57.3681C91.8057 55.7707 91.5302 53.9528 91.3099 52.1901C90.704 47.2325 90.9243 42.1096 91.0345 37.0968C91.1446 33.6265 98.0303 33.6265 97.9201 37.0968C97.8099 41.7791 97.6447 46.5164 98.1405 51.1986C98.3057 52.9613 98.8015 57.5334 100.729 57.1478C101.996 56.9274 102.657 52.9613 102.988 51.0884C103.869 46.4062 103.759 41.6138 104.42 36.9316C104.42 36.8214 104.42 36.7663 104.475 36.6561C104.861 33.5163 111.361 33.6265 111.361 36.9316C111.361 40.5672 111.361 44.2028 111.361 47.7833Z" fill="white"/>
<path d="M134.286 35.6646C134.396 40.3468 133.79 45.1392 132.689 49.7113C131.973 52.6859 130.32 60.508 123.82 60.7283C118.807 60.8936 115.888 54.3384 114.951 51.0333C113.739 46.4613 113.189 41.6689 112.858 36.9316C112.693 35.2239 114.896 34.3426 116.273 34.3426C117.816 34.3426 119.634 35.2239 119.744 36.9316C120.019 41.3935 120.515 45.8553 121.782 50.152C122.223 51.6393 123.875 57.2579 125.913 57.313C128.282 57.4232 129.824 49.6562 130.375 46.6816C131.036 43.046 131.312 39.3553 131.532 35.6646C131.642 34.3426 134.286 34.2875 134.286 35.6646Z" fill="white"/>
<path d="M156.117 47.7833C156.117 51.3088 156.228 54.7791 156.007 58.3046C155.842 61.6648 149.507 61.6097 149.287 58.3046C149.287 57.6986 149.232 57.0927 149.232 56.4868C148.295 58.4698 146.588 60.508 143.338 60.6732C140.253 60.7834 138.435 59.5164 137.389 57.3681C136.562 55.7707 136.287 53.9528 136.066 52.1901C135.461 47.2325 135.681 42.1096 135.791 37.0968C135.901 33.6265 142.787 33.6265 142.677 37.0968C142.567 41.7791 142.401 46.5164 142.897 51.1986C143.062 52.9613 143.558 57.5334 145.486 57.1478C146.753 56.9274 147.414 52.9613 147.745 51.0884C148.626 46.4062 148.516 41.6138 149.177 36.9316C149.177 36.8214 149.177 36.7663 149.232 36.6561C149.617 33.5163 156.117 33.6265 156.117 36.9316C156.117 40.5672 156.117 44.2028 156.117 47.7833Z" fill="white"/>
<path d="M178.988 51.9147C179.043 55.6054 178.933 59.241 178.272 62.8215C177.666 65.9063 175.022 73.2326 165.877 71.9657C161.966 71.4699 158.937 68.1648 159.598 64.1436C159.873 62.7665 162.627 62.6563 162.572 64.1436C162.462 65.9063 162.903 67.9444 164.445 68.9911C165.051 69.3767 165.712 69.4868 166.428 69.4317C171.331 69.1012 171.882 59.5715 171.937 58.8554C171.992 57.8639 172.047 56.8173 172.102 55.7707C171.221 57.9741 169.513 60.508 165.877 60.6732C162.793 60.7834 160.975 59.5164 159.928 57.3681C159.102 55.7707 158.827 53.9528 158.606 52.1901C158 47.2325 158.221 42.1096 158.331 37.0968C158.441 33.6265 165.327 33.6265 165.216 37.0968C165.106 41.7791 164.941 46.5164 165.437 51.1986C165.602 52.9613 166.098 57.5334 168.026 57.1478C169.293 56.9274 169.954 52.9613 170.284 51.0884C171.166 46.4062 171.055 41.6138 171.716 36.9316C171.716 36.8214 171.716 36.7663 171.771 36.6561C171.827 36.546 171.827 36.4909 171.827 36.3807C172.598 33.8468 177.39 34.0671 178.216 36.3807C178.712 37.7578 178.547 39.4655 178.602 40.8977C178.657 42.1646 178.712 43.4316 178.767 44.7536C178.877 47.1223 178.988 49.546 178.988 51.9147Z" fill="white"/>
</svg>
